<mxfile host="65bd71144e">
    <diagram name="Страница — 1" id="NL8VTntniGgfF8Ozi-k7">
        <mxGraphModel dx="905" dy="656" grid="1" gridSize="10" guides="1" tooltips="1" connect="1" arrows="1" fold="1" page="1" pageScale="1" pageWidth="827" pageHeight="1169" math="0" shadow="0">
            <root>
                <mxCell id="0"/>
                <mxCell id="1" parent="0"/>
                <mxCell id="68SvfaRm-EzDE5my9vLT-71" value="" style="shape=partialRectangle;connectable=0;fillColor=none;top=0;left=0;bottom=0;right=0;editable=1;overflow=hidden;whiteSpace=wrap;html=1;" parent="1" vertex="1">
                    <mxGeometry x="489" y="460" width="30" height="30" as="geometry">
                        <mxRectangle width="30" height="30" as="alternateBounds"/>
                    </mxGeometry>
                </mxCell>
                <mxCell id="68SvfaRm-EzDE5my9vLT-72" value="Place" style="swimlane;childLayout=stackLayout;horizontal=1;startSize=50;horizontalStack=0;rounded=1;fontSize=14;fontStyle=0;strokeWidth=2;resizeParent=0;resizeLast=1;shadow=0;dashed=0;align=center;arcSize=4;whiteSpace=wrap;html=1;" parent="1" vertex="1">
                    <mxGeometry x="239" y="490" width="160" height="120" as="geometry"/>
                </mxCell>
                <mxCell id="68SvfaRm-EzDE5my9vLT-73" value="&lt;div&gt;+id: int&lt;/div&gt;+camera: Camera&lt;br&gt;+objects: ObjectsInAud&lt;div&gt;&lt;br&gt;&lt;/div&gt;" style="align=left;strokeColor=none;fillColor=none;spacingLeft=4;fontSize=12;verticalAlign=top;resizable=0;rotatable=0;part=1;html=1;" parent="68SvfaRm-EzDE5my9vLT-72" vertex="1">
                    <mxGeometry y="50" width="160" height="70" as="geometry"/>
                </mxCell>
                <mxCell id="68SvfaRm-EzDE5my9vLT-74" value="ObjectsInPlace" style="swimlane;childLayout=stackLayout;horizontal=1;startSize=50;horizontalStack=0;rounded=1;fontSize=14;fontStyle=0;strokeWidth=2;resizeParent=0;resizeLast=1;shadow=0;dashed=0;align=center;arcSize=4;whiteSpace=wrap;html=1;" parent="1" vertex="1">
                    <mxGeometry x="489" y="420" width="170" height="190" as="geometry"/>
                </mxCell>
                <mxCell id="68SvfaRm-EzDE5my9vLT-75" value="+id: int&lt;br&gt;+place: Place&lt;br&gt;&lt;div&gt;&lt;span style=&quot;text-wrap: wrap;&quot;&gt;+&lt;/span&gt;&lt;span style=&quot;text-wrap: wrap; background-color: initial;&quot;&gt;chair: int&lt;/span&gt;&lt;/div&gt;&lt;div&gt;&lt;span style=&quot;text-wrap: wrap; background-color: initial;&quot;&gt;+&lt;/span&gt;&lt;span style=&quot;text-wrap: wrap; background-color: initial;&quot;&gt;person: int&lt;/span&gt;&lt;/div&gt;&lt;div&gt;&lt;span style=&quot;text-wrap: wrap;&quot;&gt;+interactive_whiteboard:&lt;/span&gt;&lt;span style=&quot;text-wrap: wrap; background-color: initial;&quot;&gt;int&lt;/span&gt;&lt;/div&gt;&lt;div&gt;&lt;span style=&quot;text-wrap: wrap;&quot;&gt;+keyboard: int&lt;/span&gt;&lt;/div&gt;&lt;div&gt;&lt;span style=&quot;text-wrap: wrap;&quot;&gt;+monitor: int&lt;/span&gt;&lt;/div&gt;&lt;div&gt;&lt;span style=&quot;text-wrap: wrap;&quot;&gt;+pc: int&lt;/span&gt;&lt;/div&gt;&lt;div&gt;&lt;span style=&quot;text-wrap: wrap;&quot;&gt;+table: int&lt;/span&gt;&lt;/div&gt;" style="align=left;strokeColor=none;fillColor=none;spacingLeft=4;fontSize=12;verticalAlign=top;resizable=0;rotatable=0;part=1;html=1;" parent="68SvfaRm-EzDE5my9vLT-74" vertex="1">
                    <mxGeometry y="50" width="170" height="140" as="geometry"/>
                </mxCell>
                <mxCell id="68SvfaRm-EzDE5my9vLT-76" value="" style="edgeStyle=entityRelationEdgeStyle;fontSize=12;html=1;endArrow=ERmandOne;startArrow=ERmandOne;rounded=0;entryX=-0.003;entryY=0.16;entryDx=0;entryDy=0;entryPerimeter=0;exitX=1;exitY=0.634;exitDx=0;exitDy=0;exitPerimeter=0;" parent="1" source="68SvfaRm-EzDE5my9vLT-73" target="68SvfaRm-EzDE5my9vLT-75" edge="1">
                    <mxGeometry width="100" height="100" relative="1" as="geometry">
                        <mxPoint x="399" y="550" as="sourcePoint"/>
                        <mxPoint x="499" y="450" as="targetPoint"/>
                    </mxGeometry>
                </mxCell>
                <mxCell id="68SvfaRm-EzDE5my9vLT-77" value="Camera" style="swimlane;childLayout=stackLayout;horizontal=1;startSize=50;horizontalStack=0;rounded=1;fontSize=14;fontStyle=0;strokeWidth=2;resizeParent=0;resizeLast=1;shadow=0;dashed=0;align=center;arcSize=4;whiteSpace=wrap;html=1;" parent="1" vertex="1">
                    <mxGeometry x="9" y="510" width="160" height="120" as="geometry"/>
                </mxCell>
                <mxCell id="68SvfaRm-EzDE5my9vLT-78" value="+id: int&lt;br&gt;+place: Place&lt;br&gt;+line_counter: LineCounter" style="align=left;strokeColor=none;fillColor=none;spacingLeft=4;fontSize=12;verticalAlign=top;resizable=0;rotatable=0;part=1;html=1;" parent="68SvfaRm-EzDE5my9vLT-77" vertex="1">
                    <mxGeometry y="50" width="160" height="70" as="geometry"/>
                </mxCell>
                <mxCell id="68SvfaRm-EzDE5my9vLT-79" value="" style="edgeStyle=entityRelationEdgeStyle;fontSize=12;html=1;endArrow=ERoneToMany;rounded=0;entryX=1.009;entryY=0.355;entryDx=0;entryDy=0;entryPerimeter=0;exitX=-0.019;exitY=0.406;exitDx=0;exitDy=0;exitPerimeter=0;" parent="1" source="68SvfaRm-EzDE5my9vLT-73" target="68SvfaRm-EzDE5my9vLT-78" edge="1">
                    <mxGeometry width="100" height="100" relative="1" as="geometry">
                        <mxPoint x="239" y="570" as="sourcePoint"/>
                        <mxPoint x="279" y="640" as="targetPoint"/>
                        <Array as="points">
                            <mxPoint x="210" y="550"/>
                        </Array>
                    </mxGeometry>
                </mxCell>
                <mxCell id="68SvfaRm-EzDE5my9vLT-80" value="LineCounter" style="swimlane;childLayout=stackLayout;horizontal=1;startSize=50;horizontalStack=0;rounded=1;fontSize=14;fontStyle=0;strokeWidth=2;resizeParent=0;resizeLast=1;shadow=0;dashed=0;align=center;arcSize=4;whiteSpace=wrap;html=1;" parent="1" vertex="1">
                    <mxGeometry x="239" y="640" width="200" height="150" as="geometry"/>
                </mxCell>
                <mxCell id="68SvfaRm-EzDE5my9vLT-81" value="+id&lt;div&gt;+camera: Camera&lt;br&gt;&lt;div&gt;+coord_left: turple&lt;br&gt;+coord_right: turlple&lt;/div&gt;&lt;/div&gt;&lt;div&gt;+related_line_counter: LineCounter&lt;/div&gt;&lt;div&gt;+event_history: EventHistory&lt;/div&gt;" style="align=left;strokeColor=none;fillColor=none;spacingLeft=4;fontSize=12;verticalAlign=top;resizable=0;rotatable=0;part=1;html=1;" parent="68SvfaRm-EzDE5my9vLT-80" vertex="1">
                    <mxGeometry y="50" width="200" height="100" as="geometry"/>
                </mxCell>
                <mxCell id="68SvfaRm-EzDE5my9vLT-82" value="" style="edgeStyle=entityRelationEdgeStyle;fontSize=12;html=1;endArrow=ERoneToMany;rounded=0;entryX=-0.024;entryY=0.277;entryDx=0;entryDy=0;entryPerimeter=0;exitX=1.012;exitY=0.648;exitDx=0;exitDy=0;exitPerimeter=0;" parent="1" source="68SvfaRm-EzDE5my9vLT-78" target="68SvfaRm-EzDE5my9vLT-81" edge="1">
                    <mxGeometry width="100" height="100" relative="1" as="geometry">
                        <mxPoint x="169" y="610" as="sourcePoint"/>
                        <mxPoint x="236.27999999999997" y="758.21" as="targetPoint"/>
                        <Array as="points">
                            <mxPoint x="169" y="700"/>
                            <mxPoint x="169" y="640"/>
                            <mxPoint x="229" y="710"/>
                        </Array>
                    </mxGeometry>
                </mxCell>
                <mxCell id="68SvfaRm-EzDE5my9vLT-83" value="EventHistory" style="swimlane;childLayout=stackLayout;horizontal=1;startSize=50;horizontalStack=0;rounded=1;fontSize=14;fontStyle=0;strokeWidth=2;resizeParent=0;resizeLast=1;shadow=0;dashed=0;align=center;arcSize=4;whiteSpace=wrap;html=1;" parent="1" vertex="1">
                    <mxGeometry x="509" y="645" width="160" height="140" as="geometry"/>
                </mxCell>
                <mxCell id="68SvfaRm-EzDE5my9vLT-84" value="+id&lt;div&gt;+line_counter: LineCounter&lt;/div&gt;&lt;div&gt;+object: Object&lt;br&gt;+type: enum (in/out)&lt;br&gt;&lt;/div&gt;&lt;div&gt;+date: datetime&lt;/div&gt;" style="align=left;strokeColor=none;fillColor=none;spacingLeft=4;fontSize=12;verticalAlign=top;resizable=0;rotatable=0;part=1;html=1;" parent="68SvfaRm-EzDE5my9vLT-83" vertex="1">
                    <mxGeometry y="50" width="160" height="90" as="geometry"/>
                </mxCell>
                <mxCell id="68SvfaRm-EzDE5my9vLT-85" value="" style="edgeStyle=entityRelationEdgeStyle;fontSize=12;html=1;endArrow=ERoneToMany;rounded=0;entryX=-0.022;entryY=0.402;entryDx=0;entryDy=0;entryPerimeter=0;exitX=1.006;exitY=0.868;exitDx=0;exitDy=0;exitPerimeter=0;" parent="1" source="68SvfaRm-EzDE5my9vLT-81" target="68SvfaRm-EzDE5my9vLT-84" edge="1">
                    <mxGeometry width="100" height="100" relative="1" as="geometry">
                        <mxPoint x="419" y="760" as="sourcePoint"/>
                        <mxPoint x="519" y="660" as="targetPoint"/>
                    </mxGeometry>
                </mxCell>
                <mxCell id="68SvfaRm-EzDE5my9vLT-86" value="Object" style="swimlane;childLayout=stackLayout;horizontal=1;startSize=50;horizontalStack=0;rounded=1;fontSize=14;fontStyle=0;strokeWidth=2;resizeParent=0;resizeLast=1;shadow=0;dashed=0;align=center;arcSize=4;whiteSpace=wrap;html=1;" parent="1" vertex="1">
                    <mxGeometry x="739" y="550" width="80" height="90" as="geometry"/>
                </mxCell>
                <mxCell id="68SvfaRm-EzDE5my9vLT-87" value="+id: int&lt;br&gt;+name: str" style="align=left;strokeColor=none;fillColor=none;spacingLeft=4;fontSize=12;verticalAlign=top;resizable=0;rotatable=0;part=1;html=1;" parent="68SvfaRm-EzDE5my9vLT-86" vertex="1">
                    <mxGeometry y="50" width="80" height="40" as="geometry"/>
                </mxCell>
                <mxCell id="68SvfaRm-EzDE5my9vLT-88" value="" style="edgeStyle=entityRelationEdgeStyle;fontSize=12;html=1;endArrow=ERoneToMany;rounded=0;entryX=1.023;entryY=0.618;entryDx=0;entryDy=0;entryPerimeter=0;exitX=-0.009;exitY=0.375;exitDx=0;exitDy=0;exitPerimeter=0;" parent="1" source="68SvfaRm-EzDE5my9vLT-87" target="68SvfaRm-EzDE5my9vLT-84" edge="1">
                    <mxGeometry width="100" height="100" relative="1" as="geometry">
                        <mxPoint x="749" y="900" as="sourcePoint"/>
                        <mxPoint x="759" y="780" as="targetPoint"/>
                        <Array as="points">
                            <mxPoint x="739" y="850"/>
                            <mxPoint x="699" y="870"/>
                            <mxPoint x="749" y="870"/>
                            <mxPoint x="759" y="870"/>
                        </Array>
                    </mxGeometry>
                </mxCell>
            </root>
        </mxGraphModel>
    </diagram>
</mxfile>